<mxfile host="app.diagrams.net" modified="2021-07-22T20:37:14.522Z" agent="5.0 (Macintosh; Intel Mac OS X 10_15_7) AppleWebKit/537.36 (KHTML, like Gecko) Chrome/91.0.4472.114 Safari/537.36" etag="E0j_KY7a4RJC3kPi2bYe" version="14.9.2" type="github">
  <diagram name="Page-1" id="b520641d-4fe3-3701-9064-5fc419738815">
    <mxGraphModel dx="2526" dy="713" grid="1" gridSize="10" guides="1" tooltips="1" connect="1" arrows="1" fold="1" page="1" pageScale="1" pageWidth="1100" pageHeight="850" background="none" math="0" shadow="0">
      <root>
        <mxCell id="0" />
        <mxCell id="1" parent="0" />
        <mxCell id="21ea969265ad0168-6" value="skys-scraper-app" style="swimlane;html=1;fontStyle=0;childLayout=stackLayout;horizontal=1;startSize=26;fillColor=#e0e0e0;horizontalStack=0;resizeParent=1;resizeLast=0;collapsible=1;marginBottom=0;swimlaneFillColor=#ffffff;align=center;rounded=1;shadow=0;comic=0;labelBackgroundColor=none;strokeWidth=1;fontFamily=Verdana;fontSize=12" parent="1" vertex="1">
          <mxGeometry x="400" y="230" width="160" height="110" as="geometry" />
        </mxCell>
        <mxCell id="fGuZKsi3WAYE4g1c1sPs-29" value="" style="edgeStyle=orthogonalEdgeStyle;rounded=0;orthogonalLoop=1;jettySize=auto;html=1;entryX=0;entryY=0.5;entryDx=0;entryDy=0;exitX=1;exitY=0.5;exitDx=0;exitDy=0;" parent="1" source="21ea969265ad0168-10" target="fGuZKsi3WAYE4g1c1sPs-25" edge="1">
          <mxGeometry relative="1" as="geometry">
            <mxPoint x="760" y="489" as="sourcePoint" />
            <mxPoint x="840" y="489" as="targetPoint" />
          </mxGeometry>
        </mxCell>
        <mxCell id="fGuZKsi3WAYE4g1c1sPs-44" style="edgeStyle=orthogonalEdgeStyle;rounded=0;orthogonalLoop=1;jettySize=auto;html=1;exitX=0.5;exitY=1;exitDx=0;exitDy=0;entryX=0.5;entryY=0;entryDx=0;entryDy=0;" parent="1" source="21ea969265ad0168-10" target="fGuZKsi3WAYE4g1c1sPs-32" edge="1">
          <mxGeometry relative="1" as="geometry" />
        </mxCell>
        <mxCell id="21ea969265ad0168-10" value="skys-auth-app" style="swimlane;html=1;fontStyle=0;childLayout=stackLayout;horizontal=1;startSize=26;fillColor=#e0e0e0;horizontalStack=0;resizeParent=1;resizeLast=0;collapsible=1;marginBottom=0;swimlaneFillColor=#ffffff;align=center;rounded=1;shadow=0;comic=0;labelBackgroundColor=none;strokeWidth=1;fontFamily=Verdana;fontSize=12" parent="1" vertex="1">
          <mxGeometry x="600" y="450" width="160" height="110" as="geometry" />
        </mxCell>
        <mxCell id="fGuZKsi3WAYE4g1c1sPs-3" value="" style="edgeStyle=orthogonalEdgeStyle;rounded=0;orthogonalLoop=1;jettySize=auto;html=1;entryX=0.25;entryY=1;entryDx=0;entryDy=0;" parent="1" source="21ea969265ad0168-14" target="fGuZKsi3WAYE4g1c1sPs-32" edge="1">
          <mxGeometry relative="1" as="geometry">
            <mxPoint x="580" y="720" as="targetPoint" />
            <Array as="points">
              <mxPoint x="640" y="860" />
            </Array>
          </mxGeometry>
        </mxCell>
        <mxCell id="Aex3k5U7qbUdG8koAFyI-6" style="edgeStyle=orthogonalEdgeStyle;rounded=0;orthogonalLoop=1;jettySize=auto;html=1;exitX=1;exitY=0;exitDx=0;exitDy=0;entryX=0.5;entryY=1;entryDx=0;entryDy=0;" edge="1" parent="1" source="21ea969265ad0168-14" target="Aex3k5U7qbUdG8koAFyI-9">
          <mxGeometry relative="1" as="geometry">
            <Array as="points">
              <mxPoint x="1120" y="810" />
            </Array>
          </mxGeometry>
        </mxCell>
        <mxCell id="Aex3k5U7qbUdG8koAFyI-10" style="edgeStyle=orthogonalEdgeStyle;rounded=0;orthogonalLoop=1;jettySize=auto;html=1;exitX=0.5;exitY=0;exitDx=0;exitDy=0;entryX=0.25;entryY=1;entryDx=0;entryDy=0;" edge="1" parent="1" source="21ea969265ad0168-14" target="Aex3k5U7qbUdG8koAFyI-5">
          <mxGeometry relative="1" as="geometry">
            <Array as="points">
              <mxPoint x="480" y="770" />
              <mxPoint x="880" y="770" />
            </Array>
          </mxGeometry>
        </mxCell>
        <mxCell id="21ea969265ad0168-14" value="skys-client" style="swimlane;html=1;fontStyle=0;childLayout=stackLayout;horizontal=1;startSize=26;fillColor=#e0e0e0;horizontalStack=0;resizeParent=1;resizeLast=0;collapsible=1;marginBottom=0;swimlaneFillColor=#ffffff;align=center;rounded=1;shadow=0;comic=0;labelBackgroundColor=none;strokeWidth=1;fontFamily=Verdana;fontSize=12" parent="1" vertex="1">
          <mxGeometry x="400" y="810" width="160" height="110" as="geometry" />
        </mxCell>
        <mxCell id="fGuZKsi3WAYE4g1c1sPs-8" value="skys-scraper-db" style="swimlane;html=1;fontStyle=0;childLayout=stackLayout;horizontal=1;startSize=26;fillColor=#e0e0e0;horizontalStack=0;resizeParent=1;resizeLast=0;collapsible=1;marginBottom=0;swimlaneFillColor=#ffffff;align=center;rounded=1;shadow=0;comic=0;labelBackgroundColor=none;strokeWidth=1;fontFamily=Verdana;fontSize=12" parent="1" vertex="1">
          <mxGeometry x="640" y="230" width="160" height="110" as="geometry" />
        </mxCell>
        <mxCell id="fGuZKsi3WAYE4g1c1sPs-12" value="organization" style="swimlane;html=1;fontStyle=0;childLayout=stackLayout;horizontal=1;startSize=26;fillColor=#e0e0e0;horizontalStack=0;resizeParent=1;resizeLast=0;collapsible=1;marginBottom=0;swimlaneFillColor=#ffffff;align=center;rounded=1;shadow=0;comic=0;labelBackgroundColor=none;strokeWidth=1;fontFamily=Verdana;fontSize=12" parent="1" vertex="1">
          <mxGeometry x="400" y="70" width="160" height="110" as="geometry" />
        </mxCell>
        <mxCell id="fGuZKsi3WAYE4g1c1sPs-16" value="" style="edgeStyle=orthogonalEdgeStyle;rounded=0;orthogonalLoop=1;jettySize=auto;html=1;exitX=0.5;exitY=0;exitDx=0;exitDy=0;entryX=0.5;entryY=1;entryDx=0;entryDy=0;" parent="1" source="21ea969265ad0168-6" target="fGuZKsi3WAYE4g1c1sPs-12" edge="1">
          <mxGeometry relative="1" as="geometry">
            <mxPoint x="610" y="200" as="targetPoint" />
          </mxGeometry>
        </mxCell>
        <mxCell id="fGuZKsi3WAYE4g1c1sPs-19" value="" style="edgeStyle=orthogonalEdgeStyle;rounded=0;orthogonalLoop=1;jettySize=auto;html=1;entryX=0;entryY=0.5;entryDx=0;entryDy=0;exitX=1;exitY=0.5;exitDx=0;exitDy=0;" parent="1" source="21ea969265ad0168-6" target="fGuZKsi3WAYE4g1c1sPs-8" edge="1">
          <mxGeometry relative="1" as="geometry">
            <mxPoint x="560" y="269" as="sourcePoint" />
            <mxPoint x="640" y="295" as="targetPoint" />
          </mxGeometry>
        </mxCell>
        <mxCell id="fGuZKsi3WAYE4g1c1sPs-24" value="" style="edgeStyle=orthogonalEdgeStyle;rounded=0;orthogonalLoop=1;jettySize=auto;html=1;entryX=1;entryY=0.5;entryDx=0;entryDy=0;exitX=0;exitY=0.25;exitDx=0;exitDy=0;" parent="1" source="fGuZKsi3WAYE4g1c1sPs-20" target="fGuZKsi3WAYE4g1c1sPs-8" edge="1">
          <mxGeometry relative="1" as="geometry">
            <mxPoint x="400" y="429" as="sourcePoint" />
            <mxPoint x="800" y="295" as="targetPoint" />
            <Array as="points">
              <mxPoint x="180" y="478" />
              <mxPoint x="180" y="400" />
              <mxPoint x="820" y="400" />
              <mxPoint x="820" y="285" />
            </Array>
          </mxGeometry>
        </mxCell>
        <mxCell id="fGuZKsi3WAYE4g1c1sPs-20" value="skys-search" style="swimlane;html=1;fontStyle=0;childLayout=stackLayout;horizontal=1;startSize=26;fillColor=#e0e0e0;horizontalStack=0;resizeParent=1;resizeLast=0;collapsible=1;marginBottom=0;swimlaneFillColor=#ffffff;align=center;rounded=1;shadow=0;comic=0;labelBackgroundColor=none;strokeWidth=1;fontFamily=Verdana;fontSize=12" parent="1" vertex="1">
          <mxGeometry x="200" y="450" width="160" height="110" as="geometry" />
        </mxCell>
        <mxCell id="fGuZKsi3WAYE4g1c1sPs-25" value="Auth0" style="swimlane;html=1;fontStyle=0;childLayout=stackLayout;horizontal=1;startSize=26;fillColor=#e0e0e0;horizontalStack=0;resizeParent=1;resizeLast=0;collapsible=1;marginBottom=0;swimlaneFillColor=#ffffff;align=center;rounded=1;shadow=0;comic=0;labelBackgroundColor=none;strokeWidth=1;fontFamily=Verdana;fontSize=12" parent="1" vertex="1">
          <mxGeometry x="840" y="450" width="160" height="110" as="geometry" />
        </mxCell>
        <mxCell id="fGuZKsi3WAYE4g1c1sPs-32" value="skys-client-auth-redis" style="swimlane;html=1;fontStyle=0;childLayout=stackLayout;horizontal=1;startSize=26;fillColor=#e0e0e0;horizontalStack=0;resizeParent=1;resizeLast=0;collapsible=1;marginBottom=0;swimlaneFillColor=#ffffff;align=center;rounded=1;shadow=0;comic=0;labelBackgroundColor=none;strokeWidth=1;fontFamily=Verdana;fontSize=12" parent="1" vertex="1">
          <mxGeometry x="600" y="610" width="160" height="110" as="geometry" />
        </mxCell>
        <mxCell id="fGuZKsi3WAYE4g1c1sPs-41" style="edgeStyle=orthogonalEdgeStyle;rounded=0;orthogonalLoop=1;jettySize=auto;html=1;exitX=0;exitY=0.5;exitDx=0;exitDy=0;entryX=0;entryY=0.25;entryDx=0;entryDy=0;" parent="1" source="21ea969265ad0168-14" target="fGuZKsi3WAYE4g1c1sPs-51" edge="1">
          <mxGeometry relative="1" as="geometry">
            <mxPoint x="330" y="515" as="targetPoint" />
            <mxPoint x="400" y="809" as="sourcePoint" />
          </mxGeometry>
        </mxCell>
        <mxCell id="fGuZKsi3WAYE4g1c1sPs-47" style="edgeStyle=orthogonalEdgeStyle;rounded=0;orthogonalLoop=1;jettySize=auto;html=1;exitX=0.5;exitY=0;exitDx=0;exitDy=0;entryX=0.5;entryY=1;entryDx=0;entryDy=0;" parent="1" source="fGuZKsi3WAYE4g1c1sPs-45" target="fGuZKsi3WAYE4g1c1sPs-32" edge="1">
          <mxGeometry relative="1" as="geometry">
            <Array as="points">
              <mxPoint x="680" y="800" />
              <mxPoint x="680" y="800" />
            </Array>
          </mxGeometry>
        </mxCell>
        <mxCell id="fGuZKsi3WAYE4g1c1sPs-49" style="edgeStyle=orthogonalEdgeStyle;rounded=0;orthogonalLoop=1;jettySize=auto;html=1;exitX=0;exitY=0.5;exitDx=0;exitDy=0;entryX=0;entryY=0.5;entryDx=0;entryDy=0;" parent="1" source="fGuZKsi3WAYE4g1c1sPs-45" target="fGuZKsi3WAYE4g1c1sPs-51" edge="1">
          <mxGeometry relative="1" as="geometry" />
        </mxCell>
        <mxCell id="Aex3k5U7qbUdG8koAFyI-7" style="edgeStyle=orthogonalEdgeStyle;rounded=0;orthogonalLoop=1;jettySize=auto;html=1;exitX=0.75;exitY=0;exitDx=0;exitDy=0;entryX=0.5;entryY=1;entryDx=0;entryDy=0;" edge="1" parent="1" source="fGuZKsi3WAYE4g1c1sPs-45" target="Aex3k5U7qbUdG8koAFyI-5">
          <mxGeometry relative="1" as="geometry">
            <Array as="points">
              <mxPoint x="720" y="900" />
              <mxPoint x="920" y="900" />
            </Array>
          </mxGeometry>
        </mxCell>
        <mxCell id="fGuZKsi3WAYE4g1c1sPs-45" value="skys-back-office" style="swimlane;html=1;fontStyle=0;childLayout=stackLayout;horizontal=1;startSize=26;fillColor=#e0e0e0;horizontalStack=0;resizeParent=1;resizeLast=0;collapsible=1;marginBottom=0;swimlaneFillColor=#ffffff;align=center;rounded=1;shadow=0;comic=0;labelBackgroundColor=none;strokeWidth=1;fontFamily=Verdana;fontSize=12" parent="1" vertex="1">
          <mxGeometry x="600" y="930" width="160" height="110" as="geometry" />
        </mxCell>
        <mxCell id="fGuZKsi3WAYE4g1c1sPs-48" style="edgeStyle=orthogonalEdgeStyle;rounded=0;orthogonalLoop=1;jettySize=auto;html=1;exitX=0.5;exitY=0;exitDx=0;exitDy=0;entryX=0.75;entryY=1;entryDx=0;entryDy=0;" parent="1" source="fGuZKsi3WAYE4g1c1sPs-46" target="fGuZKsi3WAYE4g1c1sPs-32" edge="1">
          <mxGeometry relative="1" as="geometry">
            <Array as="points">
              <mxPoint x="880" y="860" />
              <mxPoint x="720" y="860" />
            </Array>
          </mxGeometry>
        </mxCell>
        <mxCell id="fGuZKsi3WAYE4g1c1sPs-50" style="edgeStyle=orthogonalEdgeStyle;rounded=0;orthogonalLoop=1;jettySize=auto;html=1;exitX=0;exitY=0.5;exitDx=0;exitDy=0;entryX=0;entryY=0.75;entryDx=0;entryDy=0;" parent="1" source="fGuZKsi3WAYE4g1c1sPs-46" target="fGuZKsi3WAYE4g1c1sPs-51" edge="1">
          <mxGeometry relative="1" as="geometry" />
        </mxCell>
        <mxCell id="Aex3k5U7qbUdG8koAFyI-8" style="edgeStyle=orthogonalEdgeStyle;rounded=0;orthogonalLoop=1;jettySize=auto;html=1;exitX=0.75;exitY=0;exitDx=0;exitDy=0;entryX=0.75;entryY=1;entryDx=0;entryDy=0;" edge="1" parent="1" source="fGuZKsi3WAYE4g1c1sPs-46" target="Aex3k5U7qbUdG8koAFyI-5">
          <mxGeometry relative="1" as="geometry">
            <Array as="points">
              <mxPoint x="920" y="1000" />
              <mxPoint x="960" y="1000" />
            </Array>
          </mxGeometry>
        </mxCell>
        <mxCell id="fGuZKsi3WAYE4g1c1sPs-46" value="skys-front-office" style="swimlane;html=1;fontStyle=0;childLayout=stackLayout;horizontal=1;startSize=26;fillColor=#e0e0e0;horizontalStack=0;resizeParent=1;resizeLast=0;collapsible=1;marginBottom=0;swimlaneFillColor=#ffffff;align=center;rounded=1;shadow=0;comic=0;labelBackgroundColor=none;strokeWidth=1;fontFamily=Verdana;fontSize=12" parent="1" vertex="1">
          <mxGeometry x="800" y="1050" width="160" height="110" as="geometry" />
        </mxCell>
        <mxCell id="fGuZKsi3WAYE4g1c1sPs-52" style="edgeStyle=orthogonalEdgeStyle;rounded=0;orthogonalLoop=1;jettySize=auto;html=1;exitX=0.5;exitY=0;exitDx=0;exitDy=0;entryX=0.5;entryY=1;entryDx=0;entryDy=0;" parent="1" source="fGuZKsi3WAYE4g1c1sPs-51" target="fGuZKsi3WAYE4g1c1sPs-20" edge="1">
          <mxGeometry relative="1" as="geometry" />
        </mxCell>
        <mxCell id="Aex3k5U7qbUdG8koAFyI-2" style="edgeStyle=orthogonalEdgeStyle;rounded=0;orthogonalLoop=1;jettySize=auto;html=1;exitX=1;exitY=0.5;exitDx=0;exitDy=0;entryX=0;entryY=0.5;entryDx=0;entryDy=0;" edge="1" parent="1" source="fGuZKsi3WAYE4g1c1sPs-51" target="Aex3k5U7qbUdG8koAFyI-1">
          <mxGeometry relative="1" as="geometry" />
        </mxCell>
        <mxCell id="Aex3k5U7qbUdG8koAFyI-4" style="edgeStyle=orthogonalEdgeStyle;rounded=0;orthogonalLoop=1;jettySize=auto;html=1;exitX=0.75;exitY=0;exitDx=0;exitDy=0;entryX=0;entryY=0.5;entryDx=0;entryDy=0;" edge="1" parent="1" source="fGuZKsi3WAYE4g1c1sPs-51" target="21ea969265ad0168-10">
          <mxGeometry relative="1" as="geometry">
            <Array as="points">
              <mxPoint x="320" y="580" />
              <mxPoint x="480" y="580" />
              <mxPoint x="480" y="505" />
            </Array>
          </mxGeometry>
        </mxCell>
        <mxCell id="Aex3k5U7qbUdG8koAFyI-15" style="edgeStyle=orthogonalEdgeStyle;rounded=0;orthogonalLoop=1;jettySize=auto;html=1;exitX=0.25;exitY=0;exitDx=0;exitDy=0;entryX=0.5;entryY=1;entryDx=0;entryDy=0;" edge="1" parent="1" source="fGuZKsi3WAYE4g1c1sPs-51" target="Aex3k5U7qbUdG8koAFyI-11">
          <mxGeometry relative="1" as="geometry" />
        </mxCell>
        <mxCell id="Aex3k5U7qbUdG8koAFyI-18" style="edgeStyle=orthogonalEdgeStyle;rounded=0;orthogonalLoop=1;jettySize=auto;html=1;exitX=0;exitY=0;exitDx=0;exitDy=0;entryX=0.5;entryY=1;entryDx=0;entryDy=0;" edge="1" parent="1" source="fGuZKsi3WAYE4g1c1sPs-51" target="Aex3k5U7qbUdG8koAFyI-14">
          <mxGeometry relative="1" as="geometry">
            <Array as="points">
              <mxPoint x="-160" y="610" />
            </Array>
          </mxGeometry>
        </mxCell>
        <mxCell id="fGuZKsi3WAYE4g1c1sPs-51" value="skys-api" style="swimlane;html=1;fontStyle=0;childLayout=stackLayout;horizontal=1;startSize=26;fillColor=#e0e0e0;horizontalStack=0;resizeParent=1;resizeLast=0;collapsible=1;marginBottom=0;swimlaneFillColor=#ffffff;align=center;rounded=1;shadow=0;comic=0;labelBackgroundColor=none;strokeWidth=1;fontFamily=Verdana;fontSize=12" parent="1" vertex="1">
          <mxGeometry x="200" y="610" width="160" height="110" as="geometry" />
        </mxCell>
        <mxCell id="Aex3k5U7qbUdG8koAFyI-1" value="skys-api-db" style="swimlane;html=1;fontStyle=0;childLayout=stackLayout;horizontal=1;startSize=26;fillColor=#e0e0e0;horizontalStack=0;resizeParent=1;resizeLast=0;collapsible=1;marginBottom=0;swimlaneFillColor=#ffffff;align=center;rounded=1;shadow=0;comic=0;labelBackgroundColor=none;strokeWidth=1;fontFamily=Verdana;fontSize=12" vertex="1" parent="1">
          <mxGeometry x="400" y="610" width="160" height="110" as="geometry" />
        </mxCell>
        <mxCell id="Aex3k5U7qbUdG8koAFyI-5" value="Twilio" style="swimlane;html=1;fontStyle=0;childLayout=stackLayout;horizontal=1;startSize=26;fillColor=#e0e0e0;horizontalStack=0;resizeParent=1;resizeLast=0;collapsible=1;marginBottom=0;swimlaneFillColor=#ffffff;align=center;rounded=1;shadow=0;comic=0;labelBackgroundColor=none;strokeWidth=1;fontFamily=Verdana;fontSize=12" vertex="1" parent="1">
          <mxGeometry x="840" y="600" width="160" height="110" as="geometry" />
        </mxCell>
        <mxCell id="Aex3k5U7qbUdG8koAFyI-9" value="Stripe" style="swimlane;html=1;fontStyle=0;childLayout=stackLayout;horizontal=1;startSize=26;fillColor=#e0e0e0;horizontalStack=0;resizeParent=1;resizeLast=0;collapsible=1;marginBottom=0;swimlaneFillColor=#ffffff;align=center;rounded=1;shadow=0;comic=0;labelBackgroundColor=none;strokeWidth=1;fontFamily=Verdana;fontSize=12" vertex="1" parent="1">
          <mxGeometry x="1040" y="600" width="160" height="110" as="geometry" />
        </mxCell>
        <mxCell id="Aex3k5U7qbUdG8koAFyI-12" style="edgeStyle=orthogonalEdgeStyle;rounded=0;orthogonalLoop=1;jettySize=auto;html=1;exitX=1;exitY=0.5;exitDx=0;exitDy=0;entryX=0;entryY=0.5;entryDx=0;entryDy=0;" edge="1" parent="1" source="Aex3k5U7qbUdG8koAFyI-11" target="fGuZKsi3WAYE4g1c1sPs-20">
          <mxGeometry relative="1" as="geometry" />
        </mxCell>
        <mxCell id="Aex3k5U7qbUdG8koAFyI-21" style="edgeStyle=orthogonalEdgeStyle;rounded=0;orthogonalLoop=1;jettySize=auto;html=1;exitX=0.5;exitY=1;exitDx=0;exitDy=0;entryX=0.25;entryY=0;entryDx=0;entryDy=0;" edge="1" parent="1" source="Aex3k5U7qbUdG8koAFyI-11" target="fGuZKsi3WAYE4g1c1sPs-51">
          <mxGeometry relative="1" as="geometry" />
        </mxCell>
        <mxCell id="Aex3k5U7qbUdG8koAFyI-11" value="skys-analyze" style="swimlane;html=1;fontStyle=0;childLayout=stackLayout;horizontal=1;startSize=26;fillColor=#e0e0e0;horizontalStack=0;resizeParent=1;resizeLast=0;collapsible=1;marginBottom=0;swimlaneFillColor=#ffffff;align=center;rounded=1;shadow=0;comic=0;labelBackgroundColor=none;strokeWidth=1;fontFamily=Verdana;fontSize=12" vertex="1" parent="1">
          <mxGeometry x="-40" y="450" width="160" height="110" as="geometry" />
        </mxCell>
        <mxCell id="Aex3k5U7qbUdG8koAFyI-16" style="edgeStyle=orthogonalEdgeStyle;rounded=0;orthogonalLoop=1;jettySize=auto;html=1;exitX=1;exitY=0.5;exitDx=0;exitDy=0;entryX=0;entryY=0.5;entryDx=0;entryDy=0;" edge="1" parent="1" source="Aex3k5U7qbUdG8koAFyI-14" target="Aex3k5U7qbUdG8koAFyI-11">
          <mxGeometry relative="1" as="geometry" />
        </mxCell>
        <mxCell id="Aex3k5U7qbUdG8koAFyI-20" style="edgeStyle=orthogonalEdgeStyle;rounded=0;orthogonalLoop=1;jettySize=auto;html=1;exitX=0.5;exitY=1;exitDx=0;exitDy=0;entryX=0;entryY=0;entryDx=0;entryDy=0;" edge="1" parent="1" source="Aex3k5U7qbUdG8koAFyI-14" target="fGuZKsi3WAYE4g1c1sPs-51">
          <mxGeometry relative="1" as="geometry">
            <Array as="points">
              <mxPoint x="-160" y="610" />
            </Array>
          </mxGeometry>
        </mxCell>
        <mxCell id="Aex3k5U7qbUdG8koAFyI-14" value="skys-recommend" style="swimlane;html=1;fontStyle=0;childLayout=stackLayout;horizontal=1;startSize=26;fillColor=#e0e0e0;horizontalStack=0;resizeParent=1;resizeLast=0;collapsible=1;marginBottom=0;swimlaneFillColor=#ffffff;align=center;rounded=1;shadow=0;comic=0;labelBackgroundColor=none;strokeWidth=1;fontFamily=Verdana;fontSize=12" vertex="1" parent="1">
          <mxGeometry x="-240" y="450" width="160" height="110" as="geometry" />
        </mxCell>
      </root>
    </mxGraphModel>
  </diagram>
</mxfile>
